<svg width="182" height="145" viewBox="0 0 182 145" fill="none" xmlns="http://www.w3.org/2000/svg">
<g id="04062019-27 [Converted] 1">
<g id="XMLID_523_">
<path id="XMLID_3098_" d="M63.7164 97.5977C63.8347 97.5941 63.953 97.5923 64.0713 97.5923H115.896C121.163 97.5923 125.465 101.708 125.737 106.887C131.146 99.6839 134.347 90.7446 134.347 81.0586C134.347 57.217 114.938 37.8885 90.9982 37.8885C67.0579 37.8885 47.6512 57.2152 47.6512 81.0586C47.6512 90.8461 50.9236 99.8706 56.4364 107.113C55.399 102.459 58.7878 97.7717 63.7164 97.5977ZM89.0799 49.8528C89.1709 49.8528 89.2601 49.8546 89.3493 49.8564C89.8043 46.6411 91.0036 41.5842 94.1213 39.8931C94.5799 39.6448 95.1569 39.817 95.4262 40.2629C95.7174 40.7468 95.5409 41.3739 95.0422 41.6422C93.5298 42.456 90.6997 44.6546 90.0318 49.8981C92.1739 50.112 93.7828 51.1089 93.7828 53.3709C93.7828 55.9573 91.6789 58.0526 89.0817 58.0526C86.4846 58.0526 84.3807 55.9573 84.3807 53.3709C84.3788 50.7844 86.4828 49.8528 89.0799 49.8528ZM79.6123 65.4204H99.3101C103.099 65.4204 106.386 67.5501 108.035 70.673C107.602 70.673 107.169 70.673 106.736 70.6748C106.075 70.6748 105.332 70.7093 104.885 71.195C104.441 71.6753 104.404 72.4946 103.836 72.819C103.252 73.1525 102.524 72.732 102.049 72.2589C101.572 71.7841 101.094 71.2004 100.422 71.1479C99.7833 71.0989 99.2009 71.5883 98.937 72.1701C98.4784 73.1833 99.0335 75.0738 97.3063 74.9795C96.3089 74.9251 95.3443 73.8775 95.1824 72.9423C95.0258 72.0324 95.6392 70.8035 94.5636 70.2489C94.316 70.122 94.0267 70.1093 93.75 70.1003C92.2449 70.0513 90.727 70.0024 89.2473 70.2833C88.1499 70.4917 87.0943 70.8778 86.0041 71.1171C82.3441 71.9236 78.3346 70.9666 75.4372 68.5977C74.9094 68.1663 74.4234 67.6951 73.9648 67.1948C75.5646 66.0783 77.5102 65.4204 79.6123 65.4204ZM71.3495 77.4354C71.3913 77.4354 71.4314 77.4354 71.4732 77.4354H107.449C107.549 77.4354 107.649 77.4373 107.749 77.4391C114.081 77.6276 116.653 85.6714 111.692 89.5919C110.998 90.1393 110.358 90.6576 109.859 91.08C109.042 91.7723 108.19 92.4611 107.183 92.8381C106.313 93.1643 105.369 93.2405 104.439 93.2115C102.763 93.1589 101.096 92.7728 99.5704 92.0804C98.1417 91.4334 96.8367 90.5235 95.3716 89.9598C93.9065 89.3961 92.1684 89.2203 90.8271 90.0323C89.0835 91.0872 88.4302 93.5268 86.5374 94.2863C84.9121 94.937 83.0812 94.0524 81.7034 92.9758C80.1291 91.7451 78.7751 90.2317 77.0734 89.1841C75.3717 88.1383 73.1349 87.6253 71.3822 88.5878C70.0118 89.34 69.1837 90.9694 69.3857 92.5154C68.563 92.191 67.7914 91.7615 67.0816 91.2485C61.1101 86.9257 63.9694 77.5261 71.3495 77.4354Z" fill="#D11D65"/>
</g>
</g>
</svg>
